<svg width="40" height="40" viewBox="0 0 40 40" fill="none" xmlns="http://www.w3.org/2000/svg">
<mask id="mask0_411_13" style="mask-type:alpha" maskUnits="userSpaceOnUse" x="0" y="0" width="40" height="40">
<rect width="40" height="40" fill="#D9D9D9"/>
</mask>
<g mask="url(#mask0_411_13)">
<path d="M20 23.458C19.5833 23.458 19.236 23.3123 18.958 23.021C18.6807 22.729 18.542 22.3887 18.542 22C18.542 21.5833 18.6807 21.236 18.958 20.958C19.236 20.6807 19.5833 20.542 20 20.542C20.4167 20.542 20.764 20.6807 21.042 20.958C21.3193 21.236 21.458 21.5833 21.458 22C21.458 22.3887 21.3193 22.729 21.042 23.021C20.764 23.3123 20.4167 23.458 20 23.458ZM13.333 23.458C12.9163 23.458 12.5693 23.3123 12.292 23.021C12.014 22.729 11.875 22.3887 11.875 22C11.875 21.5833 12.014 21.236 12.292 20.958C12.5693 20.6807 12.9163 20.542 13.333 20.542C13.7497 20.542 14.097 20.6807 14.375 20.958C14.653 21.236 14.792 21.5833 14.792 22C14.792 22.3887 14.653 22.729 14.375 23.021C14.097 23.3123 13.7497 23.458 13.333 23.458ZM26.667 23.458C26.2503 23.458 25.903 23.3123 25.625 23.021C25.347 22.729 25.208 22.3887 25.208 22C25.208 21.5833 25.347 21.236 25.625 20.958C25.903 20.6807 26.2503 20.542 26.667 20.542C27.0837 20.542 27.4307 20.6807 27.708 20.958C27.986 21.236 28.125 21.5833 28.125 22C28.125 22.3887 27.986 22.729 27.708 23.021C27.4307 23.3123 27.0837 23.458 26.667 23.458ZM20 30C19.5833 30 19.236 29.854 18.958 29.562C18.6807 29.2707 18.542 28.9307 18.542 28.542C18.542 28.1253 18.6807 27.778 18.958 27.5C19.236 27.222 19.5833 27.083 20 27.083C20.4167 27.083 20.764 27.222 21.042 27.5C21.3193 27.778 21.458 28.1253 21.458 28.542C21.458 28.9307 21.3193 29.2707 21.042 29.562C20.764 29.854 20.4167 30 20 30ZM13.333 30C12.9163 30 12.5693 29.854 12.292 29.562C12.014 29.2707 11.875 28.9307 11.875 28.542C11.875 28.1253 12.014 27.778 12.292 27.5C12.5693 27.222 12.9163 27.083 13.333 27.083C13.7497 27.083 14.097 27.222 14.375 27.5C14.653 27.778 14.792 28.1253 14.792 28.542C14.792 28.9307 14.653 29.2707 14.375 29.562C14.097 29.854 13.7497 30 13.333 30ZM26.667 30C26.2503 30 25.903 29.854 25.625 29.562C25.347 29.2707 25.208 28.9307 25.208 28.542C25.208 28.1253 25.347 27.778 25.625 27.5C25.903 27.222 26.2503 27.083 26.667 27.083C27.0837 27.083 27.4307 27.222 27.708 27.5C27.986 27.778 28.125 28.1253 28.125 28.542C28.125 28.9307 27.986 29.2707 27.708 29.562C27.4307 29.854 27.0837 30 26.667 30ZM8.5 35.625C7.83333 35.625 7.25 35.382 6.75 34.896C6.25 34.41 6 33.8197 6 33.125V9.75C6 9.08333 6.25 8.5 6.75 8C7.25 7.5 7.83333 7.25 8.5 7.25H11.458V4.125H13.583V7.25H26.458V4.125H28.583V7.25H31.5C32.1667 7.25 32.75 7.5 33.25 8C33.75 8.5 34 9.08333 34 9.75V33.125C34 33.8197 33.75 34.41 33.25 34.896C32.75 35.382 32.1667 35.625 31.5 35.625H8.5ZM8.5 33.625H31.5C31.6113 33.625 31.7223 33.5763 31.833 33.479C31.9443 33.3817 32 33.2637 32 33.125V17H8V33.125C8 33.2637 8.05567 33.3817 8.167 33.479C8.27767 33.5763 8.38867 33.625 8.5 33.625ZM8 15.042H32V9.75C32 9.63867 31.9443 9.52767 31.833 9.417C31.7223 9.30567 31.6113 9.25 31.5 9.25H8.5C8.38867 9.25 8.27767 9.30567 8.167 9.417C8.05567 9.52767 8 9.63867 8 9.75V15.042Z" fill="#DBE1FF"/>
</g>
</svg>
