<svg width="24" height="24" viewBox="0 0 24 24" fill="none" xmlns="http://www.w3.org/2000/svg">
<mask id="mask0_415_55" style="mask-type:alpha" maskUnits="userSpaceOnUse" x="0" y="0" width="24" height="24">
<rect width="24" height="24" fill="#D9D9D9"/>
</mask>
<g mask="url(#mask0_415_55)">
<path d="M3.125 21.775C2.60833 21.775 2.16667 21.5917 1.8 21.225C1.43333 20.8583 1.25 20.4167 1.25 19.9V8.075C1.25 7.55833 1.43333 7.11667 1.8 6.75C2.16667 6.38333 2.60833 6.2 3.125 6.2H6.275L8.075 4.225H14.075V7.975H17V10.9H20.75V19.9C20.75 20.4167 20.5627 20.8583 20.188 21.225C19.8127 21.5917 19.375 21.775 18.875 21.775H3.125ZM11 18.325C12.2167 18.325 13.246 17.904 14.088 17.062C14.9293 16.2207 15.35 15.1917 15.35 13.975C15.35 12.7583 14.9293 11.729 14.088 10.887C13.246 10.0457 12.2167 9.625 11 9.625C9.78333 9.625 8.75433 10.0457 7.913 10.887C7.071 11.729 6.65 12.7583 6.65 13.975C6.65 15.1917 7.071 16.2207 7.913 17.062C8.75433 17.904 9.78333 18.325 11 18.325ZM11 16.45C10.3 16.45 9.71267 16.2127 9.238 15.738C8.76267 15.2627 8.525 14.675 8.525 13.975C8.525 13.275 8.76267 12.6873 9.238 12.212C9.71267 11.7373 10.3 11.5 11 11.5C11.7 11.5 12.2877 11.7373 12.763 12.212C13.2377 12.6873 13.475 13.275 13.475 13.975C13.475 14.675 13.2377 15.2627 12.763 15.738C12.2877 16.2127 11.7 16.45 11 16.45ZM18.875 8.075V6.1H16.9V4.225H18.875V2.25H20.75V4.225H22.725V6.1H20.75V8.075H18.875Z" fill="#DFDFDF"/>
</g>
</svg>
