<svg width="24" height="24" viewBox="0 0 24 24" fill="none" xmlns="http://www.w3.org/2000/svg">
<mask id="mask0_415_61" style="mask-type:alpha" maskUnits="userSpaceOnUse" x="0" y="0" width="24" height="24">
<rect width="24" height="24" fill="#D9D9D9"/>
</mask>
<g mask="url(#mask0_415_61)">
<path d="M5.07495 20.75C4.55828 20.75 4.11662 20.5667 3.74995 20.2C3.38328 19.8334 3.19995 19.3917 3.19995 18.875V5.10002C3.19995 4.58336 3.38328 4.14169 3.74995 3.77502C4.11662 3.40836 4.55828 3.22502 5.07495 3.22502H14.05V7.92502H16.025V9.90002H20.725V18.875C20.725 19.3917 20.5416 19.8334 20.1749 20.2C19.8083 20.5667 19.3666 20.75 18.85 20.75H5.07495ZM6.14995 16.925H17.775L14.15 12.1L11.2 16.025L8.99995 13.125L6.14995 16.925ZM16.95 8.97502V7.00002H14.975V5.12502H16.95V3.15002H18.825V5.12502H20.7999V7.00002H18.825V8.97502H16.95Z" fill="#DFDFDF"/>
</g>
</svg>
